#!OML:ASF H:\ColoradoDance\Project 1\Capture day 1\Session 8\male.ASF
:FULLY-SPECIFIED
:DEGREES
160
upperback -3.159700 -5.603840 0.601136
rfoot -9.880020 -24.296000
lradius 29.480301
lthumb -4.669260 370.091003
rradius 36.465000
lwrist -11.374300
rhand -34.213100 -15.737800
rhumerus -26.839800 6.096700 -56.806301
lowerneck -0.505489 -11.174600 -6.054050
lhand -31.399900 -379.838013
ltibia 57.334099
head 3.581710 -7.507790 1.477440
rwrist 4.168580
lfingers 7.125020
rtoes 9.698500
lowerback 2.482540 -4.151880 -2.006540
rfingers 7.125020
lclavicle 0.000000 0.000000
upperneck 8.354820 -14.987700 3.132480
rfemur -46.486801 -10.629600 29.402399
thorax -4.397920 -2.702960 2.076680
rclavicle 0.000000 0.000000
rtibia 47.964802
lfoot 6.845870 -8.575860
lhumerus -56.262402 0.708202 59.832500
rthumb -7.385310 -45.588902
root 19.486799 17.881701 -44.328300 1277.229980 -254.738998 -1245.180054
ltoes -13.900700
lfemur 5.281560 17.449800 -11.292900
161
upperback -3.611190 -8.315730 2.671600
rfoot -21.149099 -4.974100
lradius 26.702600
lthumb 30.109100 422.694000
rradius 45.074600
lwrist -16.596800
rhand 7.335740 -52.402100
rhumerus -16.205500 15.619100 -62.248402
lowerneck 0.659260 -9.923580 -7.989260
lhand 4.726480 -324.872986
ltibia 34.695702
head 1.920110 -6.723480 2.718840
rwrist 2.559050
lfingers 7.125020
rtoes 1.116830
lowerback 4.642530 -6.072520 -4.417560
rfingers 7.125020
lclavicle -0.000000 -0.000000
upperneck 3.347180 -13.380800 5.125630
rfemur -41.936798 11.650600 20.312700
thorax -5.334610 -3.900220 5.941490
rclavicle -0.000000 -0.000000
rtibia 61.271599
lfoot -7.993430 31.689301
lhumerus -52.122700 5.514770 63.011501
rthumb 32.595200 -79.486900
root 23.982700 17.857901 -44.456402 1270.699951 -204.699997 -1252.819946
ltoes 13.840300
lfemur 4.766710 8.251210 -7.354710
162
upperback -4.855350 -6.642730 2.296190
rfoot -25.273800 -3.766240
lradius 27.559000
lthumb 19.100201 420.627991
rradius 31.888000
lwrist -14.838500
rhand -11.896800 4.049060
rhumerus -34.689701 2.055140 -59.335999
lowerneck -2.725870 -5.080890 -0.672539
lhand -6.761520 -328.454010
ltibia -0.000000
head 1.358400 -3.382020 -0.491891
rwrist 5.161660
lfingers 7.125020
rtoes -2.086880
lowerback 3.228120 -4.999400 -0.878805
rfingers 7.125020
lclavicle -0.000000 -0.000000
upperneck 3.035390 -6.702730 -1.529380
rfemur -48.728401 9.561560 16.517000
thorax -6.487570 -3.187070 3.450560
rclavicle -0.000000 -0.000000
rtibia 66.552902
lfoot 3.124010 26.429899
lhumerus -44.026798 2.586380 52.556499
rthumb 14.156400 -25.448601
root 27.870001 17.645201 -44.609501 1273.170044 -176.076996 -1256.680054
ltoes 10.250700
lfemur 13.931300 -3.562530 1.730480
163
upperback -3.769100 -5.841190 0.603765
rfoot -18.740101 -8.803800
lradius 35.873699
lthumb 6.274060 415.457001
rradius 21.041201
lwrist -8.127190
rhand -16.559000 -7.837790
rhumerus -51.963699 -6.282210 -50.706699
lowerneck -2.219640 -0.416038 2.671250
lhand -20.068100 -334.431000
ltibia 0.000000
head 1.365510 -0.298638 -1.973430
rwrist 12.610800
lfingers 7.125020
rtoes -6.719150
lowerback 1.361770 -4.231100 -5.070740
rfingers 7.125020
lclavicle -0.000000 -0.000000
upperneck 3.204860 -0.493221 -4.774200
rfemur -60.708099 -10.159100 17.986799
thorax -4.099760 -2.735380 3.708610
rclavicle -0.000000 -0.000000
rtibia 76.333900
lfoot -17.503401 5.345400
lhumerus -38.780602 -1.352190 51.397400
rthumb 9.660880 -37.596298
root 31.272699 17.004101 -44.954700 1269.089966 -154.889008 -1253.270020
ltoes -16.732201
lfemur 24.014999 9.476300 -9.825690
164
upperback -3.491350 -7.233600 0.743700
rfoot -2.310290 -22.885201
lradius 38.776001
lthumb 13.107300 415.720001
rradius 15.803900
lwrist -10.194800
rhand -10.067800 6.165040
rhumerus -73.903702 -13.215700 -48.735901
lowerneck -2.645840 -0.334495 3.479600
lhand -12.985400 -333.847992
ltibia -0.000000
head 1.809310 -0.248152 -2.297640
rwrist 23.143000
lfingers 7.125020
rtoes 10.096400
lowerback -0.386074 -5.344830 -6.483420
rfingers 7.125020
lclavicle -0.000000 0.000000
upperneck 4.315280 -0.370699 -5.266840
rfemur -76.852600 -26.601299 29.833200
thorax -2.511390 -3.451710 4.444790
rclavicle -0.000000 0.000000
rtibia 80.419899
lfoot -24.898800 9.599910
lhumerus -31.644600 -0.358584 61.485401
rthumb 15.918400 -23.200800
root 32.702999 16.917801 -44.940498 1267.670044 -155.884003 -1253.339966
ltoes -15.898200
lfemur 23.741501 3.979990 -15.953800
165
upperback -2.896410 -6.612350 0.498281
rfoot -9.170800 -10.134900
lradius 35.361599
lthumb 8.744130 402.110992
rradius 19.436800
lwrist -11.051100
rhand -24.106600 -6.059290
rhumerus -71.727203 -14.140200 -72.180603
lowerneck -4.300650 -1.459930 4.201050
lhand -17.509100 -347.687988
ltibia 0.000000
head 1.484710 -1.063440 -2.148460
rwrist 12.107700
lfingers 7.125020
rtoes -9.707200
lowerback 0.479268 -4.877220 -4.573360
rfingers 7.125020
lclavicle -0.000000 0.000000
upperneck 2.645930 -2.040750 -4.314290
rfemur -68.467903 -21.181000 19.906601
thorax -2.682990 -3.193500 3.208510
rclavicle -0.000000 0.000000
rtibia 48.152901
lfoot -21.367901 14.757900
lhumerus -27.261400 1.371400 69.340698
rthumb 2.374400 -36.025799
root 31.836901 16.795401 -43.916698 1270.599976 -158.054993 -1255.530029
ltoes -24.518700
lfemur 25.236300 -4.334180 -14.581100
166
upperback -3.488360 -5.131940 1.008760
rfoot -10.411700 -10.110900
lradius 23.272200
lthumb 21.889900 421.790985
rradius 30.775200
lwrist -16.783800
rhand -19.139700 5.261770
rhumerus -59.532902 -10.360400 -70.759499
lowerneck -6.396190 -1.025400 4.825350
lhand -3.858470 -326.989990
ltibia 20.248501
head 2.365420 -0.823440 -2.009410
rwrist 9.659920
lfingers 7.125020
rtoes 6.090310
lowerback 1.266460 -3.852460 -0.043317
rfingers 7.125020
lclavicle 0.000000 0.000000
upperneck 4.111920 -1.602610 -3.405660
rfemur -65.138702 -16.120300 29.534599
thorax -4.205960 -2.543480 1.311830
rclavicle 0.000000 0.000000
rtibia 63.180500
lfoot 8.143970 19.306101
lhumerus -37.076801 12.697400 62.031700
rthumb 7.170280 -24.596800
root 28.770800 16.996700 -41.523602 1273.400024 -154.977997 -1262.189941
ltoes -12.678700
lfemur 20.764601 -6.086010 -6.797240
